#Comment line ignore any data following # character 
#Hierarchical Translation and Rotation (.htr) file 
[Header]	
#Header keywords are followed by a single value 
FileType HTR		#Single word string
DataType HTRS		#Translation followed by rotation and scale data
FileVersion 1		#integer
NumSegments 84		#integer
NumFrames 2		#integer
DataFrameRate 30		#integer, data frame rate in this file
EulerRotationOrder ZYX
CalibrationUnits mm
RotationUnits Degrees
GlobalAxisofGravity Y
BoneLengthAxis Y
ScaleFactor 1.00
[SegmentNames&Hierarchy]
#CHILD	PARENT
MASTER GLOBAL
root MASTER
chest root
L_mid_tent01 root
R_mid_tent01 root
spine01 root
Bip01_Neck chest
L_humerus chest
R_humerus chest
weapon_bone chest
Bip01_Head Bip01_Neck
eye_left_bone Bip01_Head
eye_right_bone Bip01_Head
L_forearm L_humerus
L_front_hand L_forearm
L_weapon_bone L_forearm
L_front_hand01_01 L_front_hand
L_front_hand02_01 L_front_hand
L_front_hand03_01 L_front_hand
L_front_hand01_02 L_front_hand01_01
L_front_hand02_02 L_front_hand02_01
L_front_hand03_02 L_front_hand03_01
R_forearm R_humerus
R_front_hand R_forearm
R_weapon_bone R_forearm
R_front_hand01_01 R_front_hand
R_front_hand02_01 R_front_hand
R_front_hand03_01 R_front_hand
R_front_hand01_02 R_front_hand01_01
R_front_hand02_02 R_front_hand02_01
R_front_hand03_02 R_front_hand03_01
null_rope01_connect L_mid_tent01
Rope1_Seg01 null_rope01_connect
Rope1_Seg02 Rope1_Seg01
Rope1_Seg03 Rope1_Seg02
Rope1_Seg04 Rope1_Seg03
Rope1_Seg05 Rope1_Seg04
Rope1_Seg06 Rope1_Seg05
Rope1_Seg07 Rope1_Seg06
Rope1_Seg09 Rope1_Seg07
L_mid_hand01 Rope1_Seg09
L_mid_hand02 Rope1_Seg09
L_mid_hand03 Rope1_Seg09
null_rope02_connect R_mid_tent01
Rope2_Seg01 null_rope02_connect
Rope2_Seg02 Rope2_Seg01
Rope2_Seg03 Rope2_Seg02
Rope2_Seg04 Rope2_Seg03
Rope2_Seg05 Rope2_Seg04
Rope2_Seg06 Rope2_Seg05
Rope2_Seg07 Rope2_Seg06
Rope2_Seg09 Rope2_Seg07
R_mid_hand01 Rope2_Seg09
R_mid_hand02 Rope2_Seg09
R_mid_hand03 Rope2_Seg09
spine02 spine01
spine03 spine02
pelvis spine03
null_rope03_connect pelvis
null_rope04_connect pelvis
Rope3_Seg01 null_rope03_connect
Rope3_Seg02 Rope3_Seg01
Rope3_Seg03 Rope3_Seg02
Rope3_Seg04 Rope3_Seg03
Rope3_Seg05 Rope3_Seg04
Rope3_Seg06 Rope3_Seg05
Rope3_Seg07 Rope3_Seg06
Rope3_Seg08 Rope3_Seg07
Rope3_Seg09 Rope3_Seg08
R_rear_hand01 Rope3_Seg09
R_rear_hand02 Rope3_Seg09
R_rear_hand03 Rope3_Seg09
Rope4_Seg01 null_rope04_connect
Rope4_Seg02 Rope4_Seg01
Rope4_Seg03 Rope4_Seg02
Rope4_Seg04 Rope4_Seg03
Rope4_Seg05 Rope4_Seg04
Rope4_Seg06 Rope4_Seg05
Rope4_Seg07 Rope4_Seg06
Rope4_Seg08 Rope4_Seg07
Rope4_Seg09 Rope4_Seg08
L_rear_hand01 Rope4_Seg09
L_rear_hand02 Rope4_Seg09
L_rear_hand03 Rope4_Seg09
[BasePosition]
#SegmentName Tx, Ty, Tz, Rx, Ry, Rz, BoneLength
MASTER 0.000000 0.000000 0.000000 -90.000000 0.000000 0.000000 10.000000 
root 0.000000 0.000000 0.000000 0.000000 0.000000 0.000000 10.000000 
chest 0.000000 0.000000 0.000000 0.000000 0.000000 0.000000 10.000000 
L_mid_tent01 0.000000 0.000000 0.000000 0.000000 0.000000 0.000000 10.000000 
R_mid_tent01 0.000000 0.000000 0.000000 0.000000 0.000000 0.000000 10.000000 
spine01 0.000000 0.000000 0.000000 0.000000 0.000000 0.000000 10.000000 
Bip01_Neck 0.000000 0.000000 0.000000 0.000000 0.000000 0.000000 10.000000 
L_humerus 0.000000 0.000000 0.000000 0.000000 0.000000 0.000000 10.000000 
R_humerus 0.000000 0.000000 0.000000 0.000000 0.000000 0.000000 10.000000 
weapon_bone 0.000000 0.000000 0.000000 0.000000 0.000000 0.000000 10.000000 
Bip01_Head 0.000000 0.000000 0.000000 0.000000 0.000000 0.000000 10.000000 
eye_left_bone 0.000000 0.000000 0.000000 0.000000 0.000000 0.000000 10.000000 
eye_right_bone 0.000000 0.000000 0.000000 0.000000 0.000000 0.000000 10.000000 
L_forearm 0.000000 0.000000 0.000000 0.000000 0.000000 0.000000 10.000000 
L_front_hand 0.000000 0.000000 0.000000 0.000000 0.000000 0.000000 10.000000 
L_weapon_bone 0.000000 0.000000 0.000000 0.000000 0.000000 0.000000 10.000000 
L_front_hand01_01 0.000000 0.000000 0.000000 0.000000 0.000000 0.000000 10.000000 
L_front_hand02_01 0.000000 0.000000 0.000000 0.000000 0.000000 0.000000 10.000000 
L_front_hand03_01 0.000000 0.000000 0.000000 0.000000 0.000000 0.000000 10.000000 
L_front_hand01_02 0.000000 0.000000 0.000000 0.000000 0.000000 0.000000 10.000000 
L_front_hand02_02 0.000000 0.000000 0.000000 0.000000 0.000000 0.000000 10.000000 
L_front_hand03_02 0.000000 0.000000 0.000000 0.000000 0.000000 0.000000 10.000000 
R_forearm 0.000000 0.000000 0.000000 0.000000 0.000000 0.000000 10.000000 
R_front_hand 0.000000 0.000000 0.000000 0.000000 0.000000 0.000000 10.000000 
R_weapon_bone 0.000000 0.000000 0.000000 0.000000 0.000000 0.000000 10.000000 
R_front_hand01_01 0.000000 0.000000 0.000000 0.000000 0.000000 0.000000 10.000000 
R_front_hand02_01 0.000000 0.000000 0.000000 0.000000 0.000000 0.000000 10.000000 
R_front_hand03_01 0.000000 0.000000 0.000000 0.000000 0.000000 0.000000 10.000000 
R_front_hand01_02 0.000000 0.000000 0.000000 0.000000 0.000000 0.000000 10.000000 
R_front_hand02_02 0.000000 0.000000 0.000000 0.000000 0.000000 0.000000 10.000000 
R_front_hand03_02 0.000000 0.000000 0.000000 0.000000 0.000000 0.000000 10.000000 
null_rope01_connect 0.000000 0.000000 0.000000 0.000000 0.000000 0.000000 10.000000 
Rope1_Seg01 0.000000 0.000000 0.000000 0.000000 0.000000 0.000000 10.000000 
Rope1_Seg02 0.000000 0.000000 0.000000 0.000000 0.000000 0.000000 10.000000 
Rope1_Seg03 0.000000 0.000000 0.000000 0.000000 0.000000 0.000000 10.000000 
Rope1_Seg04 0.000000 0.000000 0.000000 0.000000 0.000000 0.000000 10.000000 
Rope1_Seg05 0.000000 0.000000 0.000000 0.000000 0.000000 0.000000 10.000000 
Rope1_Seg06 0.000000 0.000000 0.000000 0.000000 0.000000 0.000000 10.000000 
Rope1_Seg07 0.000000 0.000000 0.000000 0.000000 0.000000 0.000000 10.000000 
Rope1_Seg09 0.000000 0.000000 0.000000 0.000000 0.000000 0.000000 10.000000 
L_mid_hand01 0.000000 0.000000 0.000000 0.000000 0.000000 0.000000 10.000000 
L_mid_hand02 0.000000 0.000000 0.000000 0.000000 0.000000 0.000000 10.000000 
L_mid_hand03 0.000000 0.000000 0.000000 0.000000 0.000000 0.000000 10.000000 
null_rope02_connect 0.000000 0.000000 0.000000 0.000000 0.000000 0.000000 10.000000 
Rope2_Seg01 0.000000 0.000000 0.000000 0.000000 0.000000 0.000000 10.000000 
Rope2_Seg02 0.000000 0.000000 0.000000 0.000000 0.000000 0.000000 10.000000 
Rope2_Seg03 0.000000 0.000000 0.000000 0.000000 0.000000 0.000000 10.000000 
Rope2_Seg04 0.000000 0.000000 0.000000 0.000000 0.000000 0.000000 10.000000 
Rope2_Seg05 0.000000 0.000000 0.000000 0.000000 0.000000 0.000000 10.000000 
Rope2_Seg06 0.000000 0.000000 0.000000 0.000000 0.000000 0.000000 10.000000 
Rope2_Seg07 0.000000 0.000000 0.000000 0.000000 0.000000 0.000000 10.000000 
Rope2_Seg09 0.000000 0.000000 0.000000 0.000000 0.000000 0.000000 10.000000 
R_mid_hand01 0.000000 0.000000 0.000000 0.000000 0.000000 0.000000 10.000000 
R_mid_hand02 0.000000 0.000000 0.000000 0.000000 0.000000 0.000000 10.000000 
R_mid_hand03 0.000000 0.000000 0.000000 0.000000 0.000000 0.000000 10.000000 
spine02 0.000000 0.000000 0.000000 0.000000 0.000000 0.000000 10.000000 
spine03 0.000000 0.000000 0.000000 0.000000 0.000000 0.000000 10.000000 
pelvis 0.000000 0.000000 0.000000 0.000000 0.000000 0.000000 10.000000 
null_rope03_connect 0.000000 0.000000 0.000000 0.000000 0.000000 0.000000 10.000000 
null_rope04_connect 0.000000 0.000000 0.000000 0.000000 0.000000 0.000000 10.000000 
Rope3_Seg01 0.000000 0.000000 0.000000 0.000000 0.000000 0.000000 10.000000 
Rope3_Seg02 0.000000 0.000000 0.000000 0.000000 0.000000 0.000000 10.000000 
Rope3_Seg03 0.000000 0.000000 0.000000 0.000000 0.000000 0.000000 10.000000 
Rope3_Seg04 0.000000 0.000000 0.000000 0.000000 0.000000 0.000000 10.000000 
Rope3_Seg05 0.000000 0.000000 0.000000 0.000000 0.000000 0.000000 10.000000 
Rope3_Seg06 0.000000 0.000000 0.000000 0.000000 0.000000 0.000000 10.000000 
Rope3_Seg07 0.000000 0.000000 0.000000 0.000000 0.000000 0.000000 10.000000 
Rope3_Seg08 0.000000 0.000000 0.000000 0.000000 0.000000 0.000000 10.000000 
Rope3_Seg09 0.000000 0.000000 0.000000 0.000000 0.000000 0.000000 10.000000 
R_rear_hand01 0.000000 0.000000 0.000000 0.000000 0.000000 0.000000 10.000000 
R_rear_hand02 0.000000 0.000000 0.000000 0.000000 0.000000 0.000000 10.000000 
R_rear_hand03 0.000000 0.000000 0.000000 0.000000 0.000000 0.000000 10.000000 
Rope4_Seg01 0.000000 0.000000 0.000000 0.000000 0.000000 0.000000 10.000000 
Rope4_Seg02 0.000000 0.000000 0.000000 0.000000 0.000000 0.000000 10.000000 
Rope4_Seg03 0.000000 0.000000 0.000000 0.000000 0.000000 0.000000 10.000000 
Rope4_Seg04 0.000000 0.000000 0.000000 0.000000 0.000000 0.000000 10.000000 
Rope4_Seg05 0.000000 0.000000 0.000000 0.000000 0.000000 0.000000 10.000000 
Rope4_Seg06 0.000000 0.000000 0.000000 0.000000 0.000000 0.000000 10.000000 
Rope4_Seg07 0.000000 0.000000 0.000000 0.000000 0.000000 0.000000 10.000000 
Rope4_Seg08 0.000000 0.000000 0.000000 0.000000 0.000000 0.000000 10.000000 
Rope4_Seg09 0.000000 0.000000 0.000000 0.000000 0.000000 0.000000 10.000000 
L_rear_hand01 0.000000 0.000000 0.000000 0.000000 0.000000 0.000000 10.000000 
L_rear_hand02 0.000000 0.000000 0.000000 0.000000 0.000000 0.000000 10.000000 
L_rear_hand03 0.000000 0.000000 0.000000 0.000000 0.000000 0.000000 10.000000 
#Beginning of Data. Separated by tabs
#Fr	Tx	Ty	Tz	Rx	Ry	Rz	SF
[MASTER]
10 -168.614517 1530.994995 692.243958 0.001660 0.001660 0.001660 1688.661621
11 -178.687332 1749.571167 860.647583 0.001660 0.001660 0.001660 1957.969116
[root]
10 88.188805 30.588987 1081.161743 -86.469284 -2.983978 -96.274559 1085.183716
11 75.778183 35.649261 1000.064758 -87.853241 -6.746586 -95.155373 1003.565002
[chest]
10 -84.512650 -34.090519 0.000000 5.951628 8.599374 154.453690 91.129311
11 -84.512650 -34.090519 0.000000 6.560447 9.529250 152.918884 91.129311
[L_mid_tent01]
10 27.298985 22.179077 -249.918701 -0.587268 20.397999 76.463249 252.381668
11 27.298973 22.179075 -249.918701 -0.242067 20.114885 78.878372 252.381668
[R_mid_tent01]
10 23.228794 24.509907 226.238495 170.438950 -21.850594 67.448006 228.744751
11 23.228794 24.509907 226.238495 168.972626 -21.987171 67.978378 228.744751
[spine01]
10 -0.361383 -0.195265 0.000000 -0.000001 -0.000007 22.052340 0.410763
11 -0.361383 -0.195265 0.000000 -0.000001 -0.000007 22.052340 0.410763
[Bip01_Neck]
10 165.484543 71.581718 0.000119 176.643677 -1.657967 43.431911 180.302734
11 165.484543 71.581718 0.000119 176.643677 -1.657967 43.431911 180.302734
[L_humerus]
10 -13.983130 -135.272980 -120.471481 35.728329 81.664146 126.005913 181.680161
11 -13.983130 -135.272980 -120.471481 60.550220 83.337791 150.961639 181.680161
[R_humerus]
10 -13.983309 -135.273102 125.287651 -172.838684 -71.505547 -92.119995 184.909012
11 -13.983309 -135.273102 125.287651 -172.439240 -66.725060 -92.491844 184.909012
[weapon_bone]
10 235.964890 -300.705902 0.000000 0.000000 -89.951546 -128.212341 382.234833
11 235.964890 -300.705902 0.000000 0.000000 -89.951546 -128.212341 382.234833
[Bip01_Head]
10 213.551620 185.416412 15.638560 4.962491 2.797846 -43.898746 283.245667
11 213.448944 185.702347 11.948012 4.962490 2.797846 -43.898743 283.175842
[eye_left_bone]
10 -24.626970 125.451866 -64.772606 0.000000 -90.000000 -99.840431 143.318359
11 -24.626970 125.451866 -64.772606 0.000000 -90.000000 -99.840431 143.318359
[eye_right_bone]
10 -24.626970 125.451866 64.327362 0.000000 -89.965736 80.156380 143.117676
11 -24.626970 125.451866 64.327362 0.000000 -89.972023 80.156387 143.117676
[L_forearm]
10 322.776093 0.000000 -0.000119 0.000404 -0.002312 -109.831482 322.776093
11 322.776093 0.000000 -0.000119 0.000405 -0.002312 -109.865715 322.776093
[L_front_hand]
10 241.149185 -0.042021 -3.300071 -173.808655 -1.834383 -27.421883 241.171753
11 241.149185 -0.042021 -3.300071 -178.667953 -1.835447 -27.422350 241.171753
[L_weapon_bone]
10 156.183838 0.000000 0.000000 0.000014 0.000007 0.000001 156.183838
11 156.183838 0.000000 0.000000 0.000014 0.000007 0.000001 156.183838
[L_front_hand01_01]
10 86.095154 20.947098 -0.655860 -0.279531 -0.529728 65.431473 88.609184
11 86.095154 20.947098 -0.655860 -0.273295 -0.533469 64.985298 88.609184
[L_front_hand02_01]
10 86.935165 -11.437475 24.513514 141.258118 -54.537659 -45.777599 91.046425
11 86.935165 -11.437475 24.513514 140.772385 -54.262844 -45.183468 91.046425
[L_front_hand03_01]
10 86.637497 -14.123976 -20.424902 -141.638611 52.767319 -47.837204 90.126129
11 86.637497 -14.123976 -20.424902 -141.183044 52.494118 -47.265888 90.126129
[L_front_hand01_02]
10 71.020905 -0.000179 0.000030 0.000317 -0.002326 -105.538452 71.020905
11 71.020905 -0.000179 0.000030 0.000316 -0.002326 -105.475121 71.020905
[L_front_hand02_02]
10 71.020927 -0.000119 0.000060 0.000317 -0.002326 -105.538452 71.020927
11 71.020927 -0.000119 0.000060 0.000316 -0.002326 -105.475121 71.020927
[L_front_hand03_02]
10 71.020905 -0.000060 0.000060 0.000317 -0.002326 -105.538452 71.020905
11 71.020905 -0.000060 0.000060 0.000316 -0.002326 -105.475121 71.020905
[R_forearm]
10 322.776428 -0.000060 0.000030 0.201800 0.066089 -108.591454 322.776428
11 322.776428 -0.000060 0.000030 0.201757 0.066222 -108.666634 322.776428
[R_front_hand]
10 238.847015 -0.006795 2.210259 -7.490693 -10.646439 -26.313681 238.857239
11 238.847015 -0.006795 2.210259 -2.635298 -10.645461 -26.312506 238.857239
[R_weapon_bone]
10 155.664093 0.002503 -0.000030 0.003487 0.001180 -90.988930 155.664078
11 155.664093 0.002503 -0.000030 0.003487 0.001180 -90.988930 155.664078
[R_front_hand01_01]
10 87.624611 14.231146 22.918642 -140.102493 -53.853168 44.460335 91.683487
11 87.624611 14.231146 22.918642 -138.890259 -53.085796 42.950848 91.683487
[R_front_hand02_01]
10 89.356956 14.367283 -19.491137 140.872437 52.278004 47.106758 92.579636
11 89.356956 14.367283 -19.491137 139.720169 51.522045 45.641415 92.579636
[R_front_hand03_01]
10 87.286232 -22.307278 -0.143439 0.074609 -0.448192 -64.587509 90.091743
11 87.286232 -22.307278 -0.143439 0.065790 -0.451534 -63.409447 90.091743
[R_front_hand01_02]
10 71.020905 0.000060 0.000119 0.002329 -0.000289 104.123192 71.020905
11 71.020905 0.000060 0.000119 0.002330 -0.000286 104.002312 71.020905
[R_front_hand02_02]
10 71.020844 -0.000030 -0.000119 0.002329 -0.000289 104.123192 71.020836
11 71.020844 -0.000030 -0.000119 0.002330 -0.000286 104.002312 71.020836
[R_front_hand03_02]
10 71.020905 0.000000 0.000030 0.002329 -0.000289 104.123192 71.020905
11 71.020905 0.000000 0.000030 0.002330 -0.000286 104.002312 71.020905
[null_rope01_connect]
10 328.732483 0.000000 -0.000238 -145.670135 -70.275093 161.062408 328.732483
11 328.732483 0.000000 -0.000238 -148.131165 -69.785545 165.106644 328.732483
[Rope1_Seg01]
10 0.000024 -0.000265 0.000029 -17.264254 7.864358 151.727051 0.000267
11 0.000022 -0.000290 0.000032 -16.987814 8.081784 153.834778 0.000292
[Rope1_Seg02]
10 139.999863 -0.000179 0.000000 -0.811699 8.907321 -8.447812 139.999863
11 139.999863 -0.000179 0.000000 -0.749355 8.837910 -7.840352 139.999863
[Rope1_Seg03]
10 139.999924 0.000060 -0.000060 -0.489743 6.466337 -6.846203 139.999924
11 139.999924 0.000060 -0.000060 -0.683887 7.164615 -6.819208 139.999924
[Rope1_Seg04]
10 139.999924 -0.000060 -0.000119 0.382057 2.206983 -3.889678 139.999924
11 139.999924 -0.000060 -0.000119 0.469456 1.734186 -3.751092 139.999924
[Rope1_Seg05]
10 139.999832 0.000119 -0.000060 -3.902194 12.807496 -9.009341 139.999832
11 139.999832 0.000119 -0.000060 -2.754865 10.489120 -7.036401 139.999832
[Rope1_Seg06]
10 139.999954 0.000119 -0.000060 -21.629721 23.369280 -13.646903 139.999954
11 139.999954 0.000119 -0.000060 -16.061260 22.179661 -11.808512 139.999954
[Rope1_Seg07]
10 139.999985 0.000060 0.000000 -36.076195 14.381373 -2.760266 139.999985
11 139.999985 0.000060 0.000000 -28.752399 16.361183 -3.955802 139.999985
[Rope1_Seg09]
10 121.602913 0.000119 -0.000089 -89.793175 -1.359789 0.847147 121.602913
11 121.602913 0.000119 -0.000089 -89.793175 -1.359789 0.847147 121.602913
[L_mid_hand01]
10 103.859421 1.038730 8.195221 109.301483 -41.408253 -13.576799 104.187431
11 103.859421 1.038730 8.195221 109.056198 -40.604698 -13.201401 104.187431
[L_mid_hand02]
10 105.572853 -4.139662 -10.864139 -147.153671 31.943630 -38.737034 106.211075
11 105.572853 -4.139662 -10.864139 -146.713593 31.476528 -37.902313 106.211075
[L_mid_hand03]
10 104.641464 17.579376 -3.913581 -14.087292 12.528420 44.741467 106.179977
11 104.641464 17.579376 -3.913581 -14.267233 12.322316 43.898396 106.179977
[null_rope02_connect]
10 328.732849 0.000179 -0.000119 -146.209274 67.700851 4.824238 328.732849
11 328.732849 0.000179 -0.000119 -134.735992 67.987587 13.284172 328.732849
[Rope2_Seg01]
10 0.000045 0.000123 0.000000 97.927139 -10.548079 1.747963 0.000131
11 0.000046 0.000120 0.000000 112.643982 -25.634741 5.926113 0.000129
[Rope2_Seg02]
10 139.999741 -0.000060 -0.000119 -30.606983 -19.047956 -33.300743 139.999756
11 139.999741 -0.000060 -0.000119 -40.211964 -32.551434 -26.169271 139.999756
[Rope2_Seg03]
10 140.000107 0.000030 0.000000 -17.022207 0.974323 -35.477798 140.000107
11 140.000107 0.000030 0.000000 -29.066471 -5.790717 -43.358292 140.000107
[Rope2_Seg04]
10 139.999802 0.000000 -0.000060 -1.678713 4.884135 -7.972581 139.999802
11 139.999802 0.000000 -0.000060 -2.963418 4.916102 -9.455336 139.999802
[Rope2_Seg05]
10 139.999985 -0.000060 0.000119 0.161373 12.685963 -1.204551 139.999985
11 139.999985 -0.000060 0.000119 -0.263286 4.810439 -2.652962 139.999985
[Rope2_Seg06]
10 139.999893 -0.000030 -0.000119 -4.374562 30.714050 -12.045507 139.999893
11 139.999893 -0.000030 -0.000119 -1.078280 9.093187 -8.063682 139.999893
[Rope2_Seg07]
10 139.999893 0.000060 -0.000060 -3.283075 19.260004 -7.057801 139.999893
11 139.999893 0.000060 -0.000060 -0.298814 8.251956 -7.736268 139.999893
[Rope2_Seg09]
10 121.338966 0.000089 -0.000060 33.793236 -1.359788 -0.847141 121.338966
11 121.338966 0.000089 -0.000060 33.793236 -1.359788 -0.847141 121.338966
[R_mid_hand01]
10 104.680779 11.144459 -10.335981 -31.399162 37.614391 47.725441 105.778534
11 104.680779 11.144459 -10.335981 -33.085678 36.191685 44.913235 105.778534
[R_mid_hand02]
10 104.070427 2.443552 8.231699 66.339699 -51.820030 19.540783 104.424065
11 104.070427 2.443552 8.231699 67.611237 -49.370296 17.897308 104.424065
[R_mid_hand03]
10 106.028137 -11.221827 -5.996406 -172.206848 13.802570 -57.446243 106.788818
11 106.028137 -11.221827 -5.996406 -171.571182 13.427420 -54.737041 106.788818
[spine02]
10 129.756927 0.001550 0.000119 0.511759 -4.027337 -15.129168 129.756927
11 129.756927 0.001550 0.000119 0.521241 -4.026094 -15.259292 129.756927
[spine03]
10 78.614006 0.081635 -4.899006 1.986583 3.786278 17.851597 78.766541
11 78.613998 0.081635 -4.899006 1.991679 3.784502 17.931889 78.766541
[pelvis]
10 169.435242 0.051022 0.000000 -0.069758 -0.177962 16.898083 169.435257
11 169.435242 0.051022 0.000000 -0.069991 -0.177870 17.048092 169.435257
[null_rope03_connect]
10 -1.257226 -2.466202 137.391083 -51.938808 -82.170372 103.517715 137.418976
11 -1.257226 -2.466202 137.391083 -54.950882 -84.015091 110.081314 137.418976
[null_rope04_connect]
10 -1.259640 -2.480268 -137.844437 -51.938808 -82.170372 103.517715 137.872513
11 -1.259640 -2.480268 -137.844437 -54.950882 -84.015091 110.081314 137.872513
[Rope3_Seg01]
10 0.000062 -0.000148 0.000000 21.428185 -38.443897 -79.487206 0.000160
11 0.000060 -0.000160 0.000000 17.812962 -41.510929 -72.810921 0.000171
[Rope3_Seg02]
10 139.999924 -0.000119 0.000060 15.381208 41.593090 27.693394 139.999924
11 139.999924 -0.000119 0.000060 16.769701 37.799168 31.354052 139.999924
[Rope3_Seg03]
10 139.999924 -0.000119 0.000119 96.056732 54.536274 40.270782 139.999924
11 139.999924 -0.000119 0.000119 113.421173 51.239338 44.071255 139.999924
[Rope3_Seg04]
10 139.999924 0.000119 0.000000 12.609547 4.654971 -7.837343 139.999924
11 139.999924 0.000119 0.000000 13.731160 3.920748 -9.202083 139.999924
[Rope3_Seg05]
10 139.999924 -0.000238 0.000060 -0.507201 -2.878452 -3.384884 139.999924
11 139.999924 -0.000238 0.000060 1.344435 -1.439807 -3.676203 139.999924
[Rope3_Seg06]
10 139.999893 -0.000119 -0.000060 0.532825 -3.011579 -4.570147 139.999893
11 139.999893 -0.000119 -0.000060 1.358631 -2.064427 -4.426587 139.999893
[Rope3_Seg07]
10 139.999771 0.000060 -0.000119 1.982531 -1.651827 -5.168519 139.999771
11 139.999771 0.000060 -0.000119 2.495859 -1.260139 -5.271612 139.999771
[Rope3_Seg08]
10 139.999985 -0.000060 0.000000 1.446885 -1.422810 -3.989110 139.999985
11 139.999985 -0.000060 0.000000 1.765461 -1.162879 -4.083158 139.999985
[Rope3_Seg09]
10 90.185997 -0.000179 -0.000060 89.793228 -1.359877 -0.847183 90.185997
11 90.185997 -0.000179 -0.000060 89.793228 -1.359877 -0.847183 90.185997
[R_rear_hand01]
10 103.366196 -6.073594 -10.757982 -168.130341 21.777140 -49.871906 104.101845
11 103.366196 -6.073594 -10.757982 -167.001480 21.149061 -46.791374 104.101845
[R_rear_hand02]
10 100.509819 12.039542 -7.992327 -26.694445 29.195726 47.151855 101.543350
11 100.509819 12.039542 -7.992327 -28.108641 27.848612 44.189137 101.543350
[R_rear_hand03]
10 101.539970 5.215704 5.435467 81.113556 -50.109848 10.702383 101.819031
11 101.539970 5.215704 5.435467 81.609138 -47.214466 10.038949 101.819031
[Rope4_Seg01]
10 -0.000017 -0.000062 -0.000153 -82.673256 -27.765354 -136.582047 0.000165
11 -0.000017 -0.000060 -0.000153 -80.280861 -34.357285 -137.335220 0.000165
[Rope4_Seg02]
10 139.999985 0.000060 0.000119 0.310136 7.974732 3.712456 139.999985
11 139.999985 0.000060 0.000119 0.625316 8.576866 3.089172 139.999985
[Rope4_Seg03]
10 139.999924 0.000000 -0.000238 0.680134 12.212360 5.732161 139.999924
11 139.999924 0.000000 -0.000238 1.524666 12.932580 4.600840 139.999924
[Rope4_Seg04]
10 139.999985 0.000000 0.000119 -1.982763 15.562324 9.763234 139.999985
11 139.999985 0.000000 0.000119 2.435297 17.417328 7.335264 139.999985
[Rope4_Seg05]
10 139.999802 -0.000060 -0.000119 -5.167062 18.573378 10.073220 139.999802
11 139.999802 -0.000060 -0.000119 8.064227 17.993885 6.788959 139.999802
[Rope4_Seg06]
10 139.999924 0.000000 0.000060 165.135742 19.605186 5.492074 139.999924
11 139.999924 0.000000 0.000060 109.583954 17.038612 -1.190679 139.999924
[Rope4_Seg07]
10 139.999802 0.000000 0.000000 2.930292 -10.912039 -6.120324 139.999802
11 139.999802 0.000000 0.000000 21.529594 -7.592053 -12.154636 139.999802
[Rope4_Seg08]
10 139.999924 0.000000 0.000119 0.023314 -5.199420 -3.202971 139.999924
11 139.999924 0.000000 0.000119 3.462533 -5.566064 -5.310460 139.999924
[Rope4_Seg09]
10 90.185791 0.000060 0.000060 -135.617828 2.228885 0.850567 90.185791
11 90.185791 0.000060 0.000060 -135.617828 2.228885 0.850567 90.185791
[L_rear_hand01]
10 101.696655 -8.392275 -7.654577 -31.194277 -24.256094 142.819397 102.329041
11 101.696655 -8.392275 -7.654577 -30.608620 -25.023813 141.417831 102.329041
[L_rear_hand02]
10 102.726799 -1.568258 5.773216 82.562164 40.032185 171.334641 102.900848
11 102.726799 -1.568258 5.773216 82.398407 41.509426 171.081650 102.900848
[L_rear_hand03]
10 104.552910 9.721220 -10.420293 -164.408707 -19.357925 -140.691956 105.519653
11 104.552910 9.721220 -10.420293 -164.917755 -19.749290 -139.167572 105.519653
